name Walk5.mot
datacolumns 19
datarows 20
range 2.89000000 2.98500000
endheader

                time	   L_ground_force_vx	   L_ground_force_vy	   L_ground_force_vz	   L_ground_force_px	   L_ground_force_py	   L_ground_force_pz	   R_ground_force_vx	   R_ground_force_vy	   R_ground_force_vz	   R_ground_force_px	   R_ground_force_py	   R_ground_force_pz	   L_ground_torque_x	   L_ground_torque_y	   L_ground_torque_z	   R_ground_torque_x	   R_ground_torque_y	   R_ground_torque_z	
          2.89000000	         17.66175522	        971.28156456	         79.35040439	         -0.33434352	          0.00000000	         -0.09224034	         -0.02102976	          0.30163861	          0.01669425	          0.00008311	          0.00000000	          0.00013001	          0.00000000	          0.51889564	          0.00000000	          0.00000000	          0.00148861	          0.00000000	
          2.89500000	         18.95284367	        970.97282292	         80.09597754	         -0.33208702	          0.00000000	         -0.09232828	         -0.03184179	          0.38647785	          0.01908499	          0.00009925	          0.00000000	          0.00015248	          0.00000000	          0.55743393	          0.00000000	          0.00000000	          0.00312460	          0.00000000	
          2.90000000	         20.29701055	        970.42511756	         80.78093652	         -0.32981964	          0.00000000	         -0.09237516	         -0.04477488	          0.47111087	          0.02045936	          0.00011218	          0.00000000	          0.00016872	          0.00000000	          0.59186770	          0.00000000	          0.00000000	          0.00529037	          0.00000000	
          2.90500000	         21.72808853	        969.80048087	         81.39414798	         -0.32756628	          0.00000000	         -0.09238144	         -0.05942046	          0.54498468	          0.02007930	          0.00011850	          0.00000000	          0.00017324	          0.00000000	          0.62039744	          0.00000000	          0.00000000	          0.00801518	          0.00000000	
          2.91000000	         23.28391198	        969.24643507	         81.92820578	         -0.32535265	          0.00000000	         -0.09234999	         -0.07493027	          0.59297010	          0.01701030	          0.00011375	          0.00000000	          0.00015891	          0.00000000	          0.64172476	          0.00000000	          0.00000000	          0.01127570	          0.00000000	
          2.91500000	         25.00132697	        968.88897881	         82.37995424	         -0.32320377	          0.00000000	         -0.09228471	         -0.08987496	          0.59466771	          0.01012673	          0.00009231	          0.00000000	          0.00011698	          0.00000000	          0.65482434	          0.00000000	          0.00000000	          0.01496948	          0.00000000	
          2.92000000	         26.91159725	        968.82962986	         82.74995705	         -0.32114147	          0.00000000	         -0.09218843	         -0.10209529	          0.52397572	         -0.00185629	          0.00004750	          0.00000000	          0.00003716	          0.00000000	          0.65912793	          0.00000000	          0.00000000	          0.01888332	          0.00000000	
          2.92500000	         29.03723408	        969.13929074	         83.04177500	         -0.31918343	          0.00000000	         -0.09206222	         -0.10856021	          0.34911913	         -0.02031344	         -0.00002824	          0.00000000	         -0.00009190	          0.00000000	          0.65442332	          0.00000000	          0.00000000	          0.02265765	          0.00000000	
          2.93000000	         31.39111793	        969.85189336	         83.26028945	         -0.31734286	          0.00000000	         -0.09190754	         -0.10525295	          0.03339513	         -0.04658992	         -0.00014287	          0.00000000	         -0.00028180	          0.00000000	          0.64087546	          0.00000000	          0.00000000	          0.02574892	          0.00000000	
          2.93500000	         33.97753426	        970.96635159	         83.41097879	         -0.31562836	          0.00000000	         -0.09172585	         -0.08711503	         -0.46305704	         -0.08181908	         -0.00030399	          0.00000000	         -0.00054319	          0.00000000	          0.61886319	          0.00000000	          0.00000000	          0.02739384	          0.00000000	
          2.94000000	         36.79404996	        972.45115497	         83.49851894	         -0.31404433	          0.00000000	         -0.09151816	         -0.04808741	         -1.18010653	         -0.12666414	         -0.00051775	          0.00000000	         -0.00088380	          0.00000000	          0.58876520	          0.00000000	          0.00000000	          0.02658045	          0.00000000	
          2.94500000	         39.83257884	        974.25073575	         83.52531412	         -0.31259176	          0.00000000	         -0.09128559	          0.01870201	         -2.15271870	         -0.18097336	         -0.00078724	          0.00000000	         -0.00130594	          0.00000000	          0.55069595	          0.00000000	          0.00000000	          0.02203395	          0.00000000	
          2.95000000	         43.08153845	        976.29374244	         83.49033238	         -0.31126865	          0.00000000	         -0.09102947	          0.12054558	         -3.40389970	         -0.24334296	         -0.00111038	          0.00000000	         -0.00180316	          0.00000000	          0.50404227	          0.00000000	          0.00000000	          0.01222684	          0.00000000	
          2.95500000	         46.52765797	        978.50118972	         83.39145142	         -0.31007099	          0.00000000	         -0.09075148	          0.26449174	         -4.93516956	         -0.31058983	         -0.00147734	          0.00000000	         -0.00235614	          0.00000000	          0.44718538	          0.00000000	          0.00000000	         -0.00457409	          0.00000000	
          2.96000000	         50.15756379	        980.79331549	         83.22864079	         -0.30899342	          0.00000000	         -0.09045494	          0.45633919	         -6.71435573	         -0.37714880	         -0.00186737	          0.00000000	         -0.00292786	          0.00000000	          0.37852939	          0.00000000	          0.00000000	         -0.03020901	          0.00000000	
          2.96500000	         53.95891598	        983.09364806	         83.00833209	         -0.30802953	          0.00000000	         -0.09014440	          0.69922278	         -8.66071393	         -0.43442645	         -0.00224528	          0.00000000	         -0.00345830	          0.00000000	          0.29719934	          0.00000000	          0.00000000	         -0.06645796	          0.00000000	
          2.97000000	         57.92067896	        985.32774395	         82.74456610	         -0.30717198	          0.00000000	         -0.08982526	          0.99173671	        -10.62771620	         -0.47016708	         -0.00255767	          0.00000000	         -0.00385896	          0.00000000	          0.20368420	          0.00000000	          0.00000000	         -0.11478771	          0.00000000	
          2.97500000	         62.03325728	        987.42125414	         82.45740268	         -0.30641224	          0.00000000	         -0.08950325	          1.32556802	        -12.38432380	         -0.46791550	         -0.00272938	          0.00000000	         -0.00400781	          0.00000000	          0.09994538	          0.00000000	          0.00000000	         -0.17599558	          0.00000000	
          2.98000000	         66.28558102	        989.29966720	         82.17004668	         -0.30574065	          0.00000000	         -0.08918413	          1.68265804	        -13.59620716	         -0.40669730	         -0.00266053	          0.00000000	         -0.00374566	          0.00000000	         -0.01055202	          0.00000000	          0.00000000	         -0.24973671	          0.00000000	
          2.98500000	         70.66320102	        990.88622074	         81.90582710	         -0.30514700	          0.00000000	         -0.08887347	          2.03197797	        -13.80919936	         -0.26107769	         -0.00222505	          0.00000000	         -0.00287492	          0.00000000	         -0.12336410	          0.00000000	          0.00000000	         -0.33392757	          0.00000000	
